<svg width="32" height="32" viewBox="0 0 32 32" fill="none" xmlns="http://www.w3.org/2000/svg">
<rect width="32" height="32" rx="4" fill="#1FB0CF"/>
<path d="M27.6872 24.885L23.2082 20.4067C23.006 20.2046 22.732 20.0923 22.4444 20.0923V20.0923C22.147 20.0923 21.9759 19.7463 22.1403 19.4984C23.1198 18.0209 23.6889 16.2495 23.6889 14.3428C23.6889 9.18182 19.5063 5 14.3444 5C9.18253 5 5 9.18182 5 14.3428C5 19.5039 9.18253 23.6857 14.3444 23.6857C16.2515 23.6857 18.0232 23.1167 19.501 22.1372C19.7489 21.9729 20.0949 22.144 20.0949 22.4415V22.4415C20.0949 22.7289 20.2072 23.0029 20.4093 23.2051L24.8884 27.6833C25.3107 28.1056 25.9935 28.1056 26.4113 27.6833L27.6827 26.4122C28.105 25.9899 28.105 25.3072 27.6872 24.885ZM14.3444 20.0923C11.1682 20.0923 8.59401 17.523 8.59401 14.3428C8.59401 11.1672 11.1637 8.5934 14.3444 8.5934C17.5206 8.5934 20.0949 11.1627 20.0949 14.3428C20.0949 17.5185 17.5251 20.0923 14.3444 20.0923Z" fill="white"/>
</svg>
